# xmcd CD database file
#
# Track frame offsets:
#	150
#	24515
#	53693
#	93694
#	151589
#	192832
#	208163
#	226738
#	248943
#	302545
#	330846
#
# Disc length: 4752 seconds
#
# Revision: 0
# Processed by: cddbd v1.5.2PL0 Copyright (c) Steve Scherf et al.
# Submitted via: CDex 1.51
#
DISCID=7f128e0b
DTITLE=Peterson,Lucky Featuring Tamara Peterson - Live At The 55 Arts Club Berlin CD 1
DYEAR=2012
DGENRE=Blues
TTITLE0=I`m Back Again
TTITLE1=Smooth Sailing
TTITLE2=Trouble
TTITLE3=Blues Medley
TTITLE4=You Shook Me
TTITLE5=Knocking
TTITLE6=How Do I, Why Do I
TTITLE7=I Don`t Like You But I Love You
TTITLE8=Been So Long
TTITLE9=I Wanna Know What Good Love Is
TTITLE10=Lost The Right
EXTD=YEAR: 2012
EXTT0=
EXTT1=
EXTT2=
EXTT3=
EXTT4=
EXTT5=
EXTT6=
EXTT7=
EXTT8=
EXTT9=
EXTT10=
PLAYORDER=
